<?xml version="1.0" encoding="UTF-8" standalone="no"?>
<svg
   xmlns:dc="http://purl.org/dc/elements/1.1/"
   xmlns:cc="http://creativecommons.org/ns#"
   xmlns:rdf="http://www.w3.org/1999/02/22-rdf-syntax-ns#"
   xmlns:svg="http://www.w3.org/2000/svg"
   xmlns="http://www.w3.org/2000/svg"
   xmlns:sodipodi="http://sodipodi.sourceforge.net/DTD/sodipodi-0.dtd"
   xmlns:inkscape="http://www.inkscape.org/namespaces/inkscape"
   data-name="Layer 1"
   viewBox="0 0 128 160"
   x="0px"
   y="0px"
   version="1.1"
   id="svg12"
   sodipodi:docname="makeup - Copy.svg"
   inkscape:version="0.92.3 (2405546, 2018-03-11)">
  <metadata
     id="metadata18">
    <rdf:RDF>
      <cc:Work
         rdf:about="">
        <dc:format>image/svg+xml</dc:format>
        <dc:type
           rdf:resource="http://purl.org/dc/dcmitype/StillImage" />
      </cc:Work>
    </rdf:RDF>
  </metadata>
  <defs
     id="defs16" />
  <sodipodi:namedview
     pagecolor="#ffffff"
     bordercolor="#666666"
     borderopacity="1"
     objecttolerance="10"
     gridtolerance="10"
     guidetolerance="10"
     inkscape:pageopacity="0"
     inkscape:pageshadow="2"
     inkscape:window-width="1920"
     inkscape:window-height="1027"
     id="namedview14"
     showgrid="false"
     inkscape:zoom="1.475"
     inkscape:cx="64"
     inkscape:cy="80"
     inkscape:window-x="-8"
     inkscape:window-y="-8"
     inkscape:window-maximized="1"
     inkscape:current-layer="svg12" />
  <path
     d="M41.53625,65.965c-9.48236,18.10742-21.28314,40.64355-6.66748,61.00684a1.99947,1.99947,0,1,0,3.24786-2.333c-13.17731-18.35937-2.011-39.68359,6.96173-56.81934l.58234-1.11328c10.522-20.11621,14.006-40.0625,10.96417-62.77246A1.99941,1.99941,0,1,0,52.6615,4.465C55.5882,26.31555,52.23785,45.504,42.118,64.85266Z"
     id="path2"
     style="fill:#096386;fill-opacity:1" />
  <path
     d="M31.53992,65.965c-9.4823,18.10742-21.28314,40.64355-6.66742,61.00684a1.99945,1.99945,0,1,0,3.2478-2.333c-13.17725-18.35937-2.011-39.68359,6.96179-56.81934l.58228-1.11328C46.1864,46.59,49.67047,26.64368,46.6286,3.93372a1.99941,1.99941,0,1,0-3.96338.53125c2.92664,21.85059-.42365,41.03906-10.54346,60.3877Z"
     id="path4"
     style="fill:#096386;fill-opacity:1" />
  <path
     d="M21.54364,65.965C12.06134,84.07239.2605,106.60852,14.87616,126.9718a1.99947,1.99947,0,1,0,3.24786-2.333C4.94678,106.27942,16.113,84.9552,25.08582,67.81946l.58228-1.11328c10.522-20.11621,14.006-40.0625,10.96423-62.77246a1.99941,1.99941,0,1,0-3.96338.53125c2.92664,21.85059-.42371,41.03906-10.54346,60.3877Z"
     id="path6"
     style="fill:#096386;fill-opacity:1" />
  <path
     d="M101.35205,93.76245l-2.83514-2.83612a3.95267,3.95267,0,0,0-1.67065-.98181,3.97466,3.97466,0,0,0-.27771-.84119L90.35834,76.003a4.00042,4.00042,0,0,0-.78546-1.1145,16.47424,16.47424,0,0,0-11.7157-4.88837,15.7677,15.7677,0,0,0-15.83435,16.0968,16.51749,16.51749,0,0,0,4.88458,11.46539,3.99992,3.99992,0,0,0,1.11407.78577L81.117,104.56061a3.99931,3.99931,0,0,0,.84454.29041,3.95542,3.95542,0,0,0,.97772,1.65869l2.83514,2.83618a3.95578,3.95578,0,0,0,4.86407.59656c.03375.03656.062.07709.09741.11249l16.7674,16.77362a3.99751,3.99751,0,0,0,5.65479,0l5.67017-5.6723a4.001,4.001,0,0,0,0-5.65686L102.06085,98.72577c-.03571-.03571-.07587-.06342-.11249-.09735a3.95954,3.95954,0,0,0-.59631-4.866Zm-18.52167,7.184L69.7348,94.73389a12.23143,12.23143,0,0,1-.27-17.287,11.79648,11.79648,0,0,1,8.39233-3.44672,12.56533,12.56533,0,0,1,8.88831,3.7168l6.21021,13.10034Zm5.77142,5.571-2.83508-2.83618,9.92285-9.92651,2.83508,2.83612Zm27.399,11.81036-5.67017,5.6723L93.56323,107.2265l5.67023-5.6723Z"
     id="path8"
     style="fill:#096386;fill-opacity:1" />
  <path
     d="M51.53253,65.965c-9.4823,18.10742-20.68994,41.67285-6.07422,62.03516H68.1275a1.99451,1.99451,0,0,0,1.46088-.63379c4.4715-4.78418,10.95831-4.63379,12.15662-4.5625a64.77794,64.77794,0,0,0,17.25342,1.18054l-9.51788-9.51788a7.78888,7.78888,0,0,1-.88971.05109,7.95167,7.95167,0,0,1-5.65631-2.34222l-2.83759-2.8371a7.7399,7.7399,0,0,1-1.06244-1.33191l-12.74664-6.045a7.96927,7.96927,0,0,1-2.22717-1.57092A20.49038,20.49038,0,0,1,58.00244,86.159,19.77,19.77,0,0,1,77.84229,66a20.45579,20.45579,0,0,1,14.54663,6.05823,7.96457,7.96457,0,0,1,1.57343,2.23083l6.04126,12.73962a7.7659,7.7659,0,0,1,1.33459,1.06964l2.83551,2.83551a7.97037,7.97037,0,0,1,2.28717,6.54071l5.5426,5.54291.00085-.0014a8.45068,8.45068,0,0,0,2.28381-2.54816,7.18656,7.18656,0,0,0,.9801-6.22168,7.27626,7.27626,0,0,0-.96252-1.918,6.84454,6.84454,0,0,0,1.47455-2.88965,6.74233,6.74233,0,0,0-1.67712-6.02637,3.995,3.995,0,0,0-1.53412-.99512,2.62036,2.62036,0,0,1-1.33057-1.05566c.23676-1.79687,3.242-4.25977,5.40771-5.37012a4.034,4.034,0,0,0,.97571-.70508,7.02653,7.02653,0,0,0,2.34869-5.80273,7.425,7.425,0,0,0-3.19067-5.18164c-4.16986-2.8457-12.22449-8.95605-14.27161-10.77344.1684-4.25977.04-5.47949-2.00513-8.27734C97.11871,13.81653,68.89136.49329,68.60144.36047A3.96335,3.96335,0,0,0,66.80524.007a3.95042,3.95042,0,0,0-4.1474,4.458c2.92664,21.85059-.42371,41.03906-10.54346,60.3877Z"
     id="path10"
     style="fill:#096386;fill-opacity:1" />
</svg>
