<svg xmlns="http://www.w3.org/2000/svg" xmlns:xlink="http://www.w3.org/1999/xlink" version="1.1" x="0px" y="0px" viewBox="0 0 100 125" style="enable-background:new 0 0 100 100;" xml:space="preserve"><g><path d="M38.76,60.88l0.05,0.11c0.54,1.22,1.76,2.01,3.1,2.01H78c1.1,0,2-0.9,2-2s-0.9-2-2-2H42.33L28.85,23.12l-0.05-0.11   C28.26,21.79,27.04,21,25.7,21H11c-1.1,0-2,0.9-2,2s0.9,2,2,2h14.28L38.76,60.88z"/><path d="M83.94,29H40.06c-1.13,0-2.18,0.56-2.81,1.49c-0.63,0.93-0.76,2.11-0.34,3.15l7.89,20.22c0.52,1.3,1.75,2.13,3.15,2.13   h29.11c1.4,0,2.63-0.84,3.15-2.13l6.91-20.27c0.39-1.03,0.26-2.19-0.36-3.1C86.12,29.56,85.07,29,83.94,29z M76.62,52H48.36   l-1.56-4h31.18L76.62,52z M79.35,44H45.24l-1.56-4h37.03L79.35,44z M82.07,36H42.12l-1.17-3h42.15L82.07,36z"/><path d="M41.18,72.89c0,3.64,2.96,6.61,6.61,6.61s6.61-2.96,6.61-6.61s-2.96-6.61-6.61-6.61S41.18,69.25,41.18,72.89z M50.4,72.89   c0,1.44-1.17,2.61-2.61,2.61s-2.61-1.17-2.61-2.61s1.17-2.61,2.61-2.61S50.4,71.46,50.4,72.89z"/><path d="M72.36,66.29c-3.64,0-6.61,2.96-6.61,6.61s2.96,6.61,6.61,6.61s6.61-2.96,6.61-6.61S76,66.29,72.36,66.29z M72.36,75.5   c-1.44,0-2.61-1.17-2.61-2.61s1.17-2.61,2.61-2.61s2.61,1.17,2.61,2.61S73.79,75.5,72.36,75.5z"/></g></svg>