<?xml version="1.0" encoding="UTF-8" standalone="no"?>
<svg
   xmlns:dc="http://purl.org/dc/elements/1.1/"
   xmlns:cc="http://creativecommons.org/ns#"
   xmlns:rdf="http://www.w3.org/1999/02/22-rdf-syntax-ns#"
   xmlns:svg="http://www.w3.org/2000/svg"
   xmlns="http://www.w3.org/2000/svg"
   xmlns:sodipodi="http://sodipodi.sourceforge.net/DTD/sodipodi-0.dtd"
   xmlns:inkscape="http://www.inkscape.org/namespaces/inkscape"
   data-name="Layer 1"
   viewBox="0 0 50 50"
   x="0px"
   y="0px"
   version="1.1"
   id="svg12"
   sodipodi:docname="favi.svg"
   inkscape:version="0.92.3 (2405546, 2018-03-11)"
   width="50"
   height="50">
  <metadata
     id="metadata18">
    <rdf:RDF>
      <cc:Work
         rdf:about="">
        <dc:format>image/svg+xml</dc:format>
        <dc:type
           rdf:resource="http://purl.org/dc/dcmitype/StillImage" />
        <dc:title></dc:title>
      </cc:Work>
    </rdf:RDF>
  </metadata>
  <defs
     id="defs16" />
  <sodipodi:namedview
     pagecolor="#ffffff"
     bordercolor="#666666"
     borderopacity="1"
     objecttolerance="10"
     gridtolerance="10"
     guidetolerance="10"
     inkscape:pageopacity="0"
     inkscape:pageshadow="2"
     inkscape:window-width="1920"
     inkscape:window-height="1027"
     id="namedview14"
     showgrid="false"
     inkscape:zoom="1.475"
     inkscape:cx="-46.169492"
     inkscape:cy="90.169492"
     inkscape:window-x="-8"
     inkscape:window-y="-8"
     inkscape:window-maximized="1"
     inkscape:current-layer="svg12" />
  <g
     id="g824"
     transform="matrix(0.35153974,0,0,0.35153974,3.119905,2.5086471)">
    <path
       style="fill:#096386;fill-opacity:1"
       id="path2"
       d="m 41.53625,65.965 c -9.48236,18.10742 -21.28314,40.64355 -6.66748,61.00684 a 1.99947,1.99947 0 1 0 3.24786,-2.333 C 24.93932,106.27947 36.10563,84.95525 45.07836,67.8195 L 45.6607,66.70622 C 56.1827,46.59001 59.6667,26.64372 56.62487,3.93376 A 1.99941,1.99941 0 1 0 52.6615,4.465 C 55.5882,26.31555 52.23785,45.504 42.118,64.85266 Z"
       inkscape:connector-curvature="0" />
    <path
       style="fill:#096386;fill-opacity:1"
       id="path4"
       d="m 31.53992,65.965 c -9.4823,18.10742 -21.28314,40.64355 -6.66742,61.00684 a 1.99945,1.99945 0 1 0 3.2478,-2.333 C 14.94305,106.27947 26.1093,84.95525 35.08209,67.8195 l 0.58228,-1.11328 C 46.1864,46.59 49.67047,26.64368 46.6286,3.93372 a 1.9994129,1.9994129 0 1 0 -3.96338,0.53125 c 2.92664,21.85059 -0.42365,41.03906 -10.54346,60.3877 z"
       inkscape:connector-curvature="0" />
    <path
       style="fill:#096386;fill-opacity:1"
       id="path6"
       d="m 21.54364,65.965 c -9.4823,18.10739 -21.28314,40.64352 -6.66748,61.0068 a 1.99947,1.99947 0 1 0 3.24786,-2.333 C 4.94678,106.27942 16.113,84.9552 25.08582,67.81946 L 25.6681,66.70618 C 36.1901,46.58997 39.6741,26.64368 36.63233,3.93372 a 1.9994129,1.9994129 0 1 0 -3.96338,0.53125 c 2.92664,21.85059 -0.42371,41.03906 -10.54346,60.3877 z"
       inkscape:connector-curvature="0" />
    <path
       style="fill:#096386;fill-opacity:1"
       id="path8"
       d="M 101.35205,93.76245 98.51691,90.92633 A 3.95267,3.95267 0 0 0 96.84626,89.94452 3.97466,3.97466 0 0 0 96.56855,89.10333 L 90.35834,76.003 a 4.00042,4.00042 0 0 0 -0.78546,-1.1145 16.47424,16.47424 0 0 0 -11.7157,-4.88837 15.7677,15.7677 0 0 0 -15.83435,16.0968 16.51749,16.51749 0 0 0 4.88458,11.46539 3.99992,3.99992 0 0 0 1.11407,0.78577 l 13.09552,6.21252 a 3.99931,3.99931 0 0 0 0.84454,0.29041 3.95542,3.95542 0 0 0 0.97772,1.65869 l 2.83514,2.83618 a 3.95578,3.95578 0 0 0 4.86407,0.59656 c 0.03375,0.0366 0.062,0.0771 0.09741,0.11249 l 16.7674,16.77362 a 3.99751,3.99751 0 0 0 5.65479,0 l 5.67017,-5.6723 a 4.001,4.001 0 0 0 0,-5.65686 L 102.06085,98.72577 c -0.0357,-0.03571 -0.0759,-0.06342 -0.11249,-0.09735 a 3.95954,3.95954 0 0 0 -0.59631,-4.866 z m -18.52167,7.184 -13.09558,-6.21256 a 12.23143,12.23143 0 0 1 -0.27,-17.287 11.79648,11.79648 0 0 1 8.39233,-3.44672 12.56533,12.56533 0 0 1 8.88831,3.7168 l 6.21021,13.10034 z m 5.77142,5.571 -2.83508,-2.83618 9.92285,-9.92651 2.83508,2.83612 z m 27.399,11.81036 -5.67017,5.6723 -16.7674,-16.77361 5.67023,-5.6723 z"
       inkscape:connector-curvature="0" />
    <path
       style="fill:#096386;fill-opacity:1"
       id="path10"
       d="m 51.53253,65.965 c -9.4823,18.10742 -20.68994,41.67285 -6.07422,62.03516 H 68.1275 a 1.99451,1.99451 0 0 0 1.46088,-0.63379 c 4.4715,-4.78418 10.95831,-4.63379 12.15662,-4.5625 a 64.77794,64.77794 0 0 0 17.25342,1.18054 l -9.51788,-9.51788 a 7.78888,7.78888 0 0 1 -0.88971,0.0511 7.95167,7.95167 0 0 1 -5.65631,-2.34222 l -2.83759,-2.8371 a 7.7399,7.7399 0 0 1 -1.06244,-1.33191 l -12.74664,-6.045 A 7.96927,7.96927 0 0 1 64.06068,100.39047 20.49038,20.49038 0 0 1 58.00244,86.159 19.77,19.77 0 0 1 77.84229,66 a 20.45579,20.45579 0 0 1 14.54663,6.05823 7.96457,7.96457 0 0 1 1.57343,2.23083 l 6.04126,12.73962 a 7.7659,7.7659 0 0 1 1.33459,1.06964 l 2.83551,2.83551 a 7.97037,7.97037 0 0 1 2.28717,6.54071 l 5.5426,5.54291 8.5e-4,-10e-4 a 8.45068,8.45068 0 0 0 2.28381,-2.54816 7.18656,7.18656 0 0 0 0.9801,-6.22168 7.27626,7.27626 0 0 0 -0.96252,-1.918 6.84454,6.84454 0 0 0 1.47455,-2.88965 6.74233,6.74233 0 0 0 -1.67712,-6.02637 3.995,3.995 0 0 0 -1.53412,-0.99512 2.62036,2.62036 0 0 1 -1.33057,-1.05566 c 0.23676,-1.79687 3.242,-4.25977 5.40771,-5.37012 a 4.034,4.034 0 0 0 0.97571,-0.70508 7.02653,7.02653 0 0 0 2.34869,-5.80273 7.425,7.425 0 0 0 -3.19067,-5.18164 c -4.16986,-2.8457 -12.22449,-8.95605 -14.27161,-10.77344 0.1684,-4.25977 0.04,-5.47949 -2.00513,-8.27734 C 97.11871,13.81653 68.89136,0.49329 68.60144,0.36047 A 3.96335,3.96335 0 0 0 66.80524,0.007 3.95042,3.95042 0 0 0 62.65784,4.465 c 2.92664,21.85059 -0.42371,41.03906 -10.54346,60.3877 z"
       inkscape:connector-curvature="0" />
  </g>
</svg>
